# xmcd
#
# Track frame offsets:
#   150
#   17958
#   36347
#   51086
#   69245
#   84487
#   104164
#   122867
#   141826
#   157925
#   175275
#   191369
#   205253
#   221563
#   237434
#   254257
#   267231
#   279698
#   294177
#   313857
#
# Disc length: 4419 seconds
#
# Revision: 0
# Processed by: cddbd v1.5.1PL0 Copyright (c) Steve Scherf et al.
# Submitted via: uFREEDB ActiveX Control 1.5
#
DISCID=30114114
DTITLE=Carlos Vives - Exitos
DYEAR=1900
DGENRE=Blues
TTITLE0=Dejame entrar
TTITLE1=Amor latino
TTITLE2=Quiero verte sonreir
TTITLE3=Tu amor eterno
TTITLE4=El amor de mi tierra
TTITLE5=La tierra del olvido
TTITLE6=Que diera
TTITLE7=Alicia adorada
TTITLE8=Maria Teresa
TTITLE9=Fruta fresca
TTITLE10=Luna Nueva
TTITLE11=Pa Mayte
TTITLE12=Carito
TTITLE13=La gota fria
TTITLE14=Caballito
TTITLE15=El testamento
TTITLE16=Lirio rojo
TTITLE17=Miguel Canales
TTITLE18=La piragua
TTITLE19=Dejame entrar
EXTD=
EXTT0=
EXTT1=
EXTT2=
EXTT3=
EXTT4=
EXTT5=
EXTT6=
EXTT7=
EXTT8=
EXTT9=
EXTT10=
EXTT11=
EXTT12=
EXTT13=
EXTT14=
EXTT15=
EXTT16=
EXTT17=
EXTT18=
EXTT19=
PLAYORDER=
